<svg width="13" height="14" viewBox="0 0 13 14" fill="none" xmlns="http://www.w3.org/2000/svg">
<path d="M11.0081 2.05078C9.72526 0.727344 8.01751 0 6.20087 0C4.89416 0 3.62464 0.382812 2.5304 1.10742C1.46538 1.81289 0.612836 2.80273 0.0657189 3.97578C-0.0936357 4.31484 0.0471275 4.725 0.37646 4.88906C0.705793 5.05312 1.10418 4.9082 1.26353 4.56914C1.70442 3.62578 2.38964 2.82734 3.2475 2.25859C4.12926 1.67617 5.14913 1.36719 6.20087 1.36719C9.21798 1.36719 11.672 3.89375 11.672 7C11.672 10.1062 9.21798 12.6328 6.20087 12.6328C5.14913 12.6328 4.12926 12.3238 3.2475 11.7441C2.38964 11.1781 1.70442 10.377 1.26353 9.43359C1.10418 9.09453 0.708449 8.94961 0.37646 9.11367C0.0471275 9.27773 -0.0936357 9.68516 0.0657189 10.027C0.612836 11.2 1.46273 12.1926 2.5304 12.8953C3.62464 13.6172 4.89416 14 6.20087 14C8.01751 14 9.72526 13.2727 11.0081 11.9492C12.2935 10.6258 13 8.87031 13 7C13 5.12969 12.2935 3.37148 11.0081 2.05078Z" fill="#EB2027"/>
<path d="M3.10408 7C3.10408 7.37734 3.40155 7.68359 3.76806 7.68359H7.54477L6.56474 8.69258C6.30446 8.96055 6.30446 9.39258 6.56474 9.66055C6.69488 9.79453 6.86485 9.86016 7.03483 9.86016C7.20481 9.86016 7.37479 9.79453 7.50493 9.66055L9.1755 7.94062C9.41984 7.68906 9.55264 7.35547 9.55264 7.00273C9.55264 6.65 9.41719 6.31367 9.1755 6.06484L7.50493 4.34492C7.24465 4.07695 6.82502 4.07695 6.56474 4.34492C6.30446 4.61289 6.30446 5.04492 6.56474 5.31289L7.54477 6.32187H3.76806C3.40155 6.31641 3.10408 6.62266 3.10408 7Z" fill="#EB2027"/>
</svg>
