<svg width="14" height="12" viewBox="0 0 14 12" fill="none" xmlns="http://www.w3.org/2000/svg">
<path d="M8.68182 11C8.68182 11.2761 8.90568 11.5 9.18182 11.5C9.45796 11.5 9.68182 11.2761 9.68182 11H8.68182ZM9.18182 9.88889L9.68182 9.88889L9.18182 9.88889ZM7 7.66667V7.16667V7.66667ZM3.18182 7.66667L3.18182 7.16667L3.18182 7.66667ZM1 9.88889H0.5H1ZM0.5 11C0.5 11.2761 0.723858 11.5 1 11.5C1.27614 11.5 1.5 11.2761 1.5 11H0.5ZM13 5.94444C13.2761 5.94444 13.5 5.72059 13.5 5.44444C13.5 5.1683 13.2761 4.94444 13 4.94444V5.94444ZM9.72727 4.94444C9.45113 4.94444 9.22727 5.1683 9.22727 5.44444C9.22727 5.72059 9.45113 5.94444 9.72727 5.94444V4.94444ZM9.68182 11V9.88889H8.68182V11H9.68182ZM9.68182 9.88889C9.68182 9.16984 9.40146 8.47844 8.89956 7.96725L8.186 8.66784C8.50244 8.99014 8.68182 9.4292 8.68182 9.88889L9.68182 9.88889ZM8.89956 7.96725C8.39736 7.45574 7.71425 7.16667 7 7.16667L7 8.16667C7.44305 8.16667 7.86986 8.34584 8.186 8.66784L8.89956 7.96725ZM7 7.16667H3.18182V8.16667H7V7.16667ZM3.18182 7.16667C2.46756 7.16667 1.78446 7.45574 1.28226 7.96725L1.99582 8.66784C2.31196 8.34584 2.73876 8.16667 3.18182 8.16667L3.18182 7.16667ZM1.28226 7.96725C0.780361 8.47844 0.5 9.16984 0.5 9.88889H1.5C1.5 9.4292 1.67938 8.99014 1.99582 8.66784L1.28226 7.96725ZM0.5 9.88889V11H1.5V9.88889H0.5ZM6.77273 3.22222C6.77273 4.18207 6.01114 4.94444 5.09091 4.94444V5.94444C6.58065 5.94444 7.77273 4.71698 7.77273 3.22222H6.77273ZM5.09091 4.94444C4.17068 4.94444 3.40909 4.18207 3.40909 3.22222H2.40909C2.40909 4.71698 3.60117 5.94444 5.09091 5.94444V4.94444ZM3.40909 3.22222C3.40909 2.26238 4.17068 1.5 5.09091 1.5V0.5C3.60117 0.5 2.40909 1.72747 2.40909 3.22222H3.40909ZM5.09091 1.5C6.01114 1.5 6.77273 2.26238 6.77273 3.22222H7.77273C7.77273 1.72747 6.58065 0.5 5.09091 0.5V1.5ZM13 4.94444H9.72727V5.94444H13V4.94444Z" fill="#EB2027"/>
</svg>
