<svg width="203" height="47" viewBox="0 0 203 47" fill="none" xmlns="http://www.w3.org/2000/svg">
<path d="M25.9588 15.2835H23.1547C23.1547 10.7886 19.4949 7.12883 15.0103 7.12883C10.5155 7.12883 6.8557 10.7886 6.8557 15.2835C6.8557 19.7783 10.5155 23.4278 15.0103 23.4278V26.2319C8.9691 26.2319 4.05157 21.3144 4.05157 15.2732C4.05157 9.23192 8.95879 4.32471 15 4.32471C21.0413 4.32471 25.9588 9.24223 25.9588 15.2835Z" fill="url(#paint0_radial_5_4)"/>
<path d="M30 15.2835H27.1959C27.1959 8.55155 21.7216 3.08763 15 3.08763C8.27835 3.08763 2.80412 8.56186 2.80412 15.2835C2.80412 22.0052 8.27835 27.4794 15 27.4794V30.2835C6.73196 30.2835 0 23.5515 0 15.2835C0 7.00516 6.73196 0.283508 15 0.283508C23.268 0.283508 30 7.00516 30 15.2835Z" fill="url(#paint1_radial_5_4)"/>
<path d="M4.04126 31.7165H6.84538C6.84538 36.2113 10.5052 39.8711 15 39.8711C19.4949 39.8711 23.1444 36.2113 23.1444 31.7165C23.1444 27.2216 19.4846 23.5722 15 23.5722V20.768C21.0413 20.768 25.9588 25.6856 25.9588 31.7268C25.9588 37.768 21.0413 42.6856 15 42.6856C8.95879 42.6753 4.04126 37.7577 4.04126 31.7165Z" fill="url(#paint2_radial_5_4)"/>
<path d="M30 31.7165C30 39.9845 23.268 46.7165 15 46.7165C6.73196 46.7165 0 39.9845 0 31.7165H2.80412C2.80412 38.4484 8.27835 43.9124 15 43.9124C21.7216 43.9124 27.1856 38.4381 27.1856 31.7165C27.1856 24.9948 21.7113 19.5206 15 19.5206V16.7165C23.268 16.7165 30 23.4485 30 31.7165Z" fill="url(#paint3_radial_5_4)"/>
<path d="M59.4091 34.154C58.2798 34.154 57.2678 33.9707 56.3731 33.604C55.4784 33.2373 54.7598 32.6947 54.2171 31.976C53.6891 31.2573 53.4104 30.392 53.3811 29.38H57.3851C57.4438 29.952 57.6418 30.392 57.9791 30.7C58.3164 30.9933 58.7564 31.14 59.2991 31.14C59.8564 31.14 60.2964 31.0153 60.6191 30.766C60.9418 30.502 61.1031 30.1427 61.1031 29.688C61.1031 29.3067 60.9711 28.9913 60.7071 28.742C60.4578 28.4927 60.1424 28.2873 59.7611 28.126C59.3944 27.9647 58.8664 27.7813 58.1771 27.576C57.1798 27.268 56.3658 26.96 55.7351 26.652C55.1044 26.344 54.5618 25.8893 54.1071 25.288C53.6524 24.6867 53.4251 23.902 53.4251 22.934C53.4251 21.4967 53.9458 20.3747 54.9871 19.568C56.0284 18.7467 57.3851 18.336 59.0571 18.336C60.7584 18.336 62.1298 18.7467 63.1711 19.568C64.2124 20.3747 64.7698 21.504 64.8431 22.956H60.7731C60.7438 22.4573 60.5604 22.0687 60.2231 21.79C59.8858 21.4967 59.4531 21.35 58.9251 21.35C58.4704 21.35 58.1038 21.4747 57.8251 21.724C57.5464 21.9587 57.4071 22.3033 57.4071 22.758C57.4071 23.2567 57.6418 23.6453 58.1111 23.924C58.5804 24.2027 59.3138 24.5033 60.3111 24.826C61.3084 25.1633 62.1151 25.486 62.7311 25.794C63.3618 26.102 63.9044 26.5493 64.3591 27.136C64.8138 27.7227 65.0411 28.478 65.0411 29.402C65.0411 30.282 64.8138 31.0813 64.3591 31.8C63.9191 32.5187 63.2738 33.0907 62.4231 33.516C61.5724 33.9413 60.5678 34.154 59.4091 34.154Z" fill="#F5F5F5"/>
<path d="M78.7303 31.272H72.9663L72.0423 34H68.1043L73.6923 18.556H78.0483L83.6363 34H79.6543L78.7303 31.272ZM77.7623 28.368L75.8483 22.714L73.9563 28.368H77.7623Z" fill="#F5F5F5"/>
<path d="M100.913 34H97.151L90.859 24.474V34H87.097V18.556H90.859L97.151 28.126V18.556H100.913V34Z" fill="#F5F5F5"/>
<path d="M109.404 30.92H116.048V34H105.136V31.14L111.736 21.636H105.136V18.556H116.048V21.416L109.404 30.92Z" fill="#F5F5F5"/>
<path d="M127.569 34.154C126.117 34.154 124.783 33.8167 123.565 33.142C122.363 32.4673 121.402 31.5287 120.683 30.326C119.979 29.1087 119.627 27.7447 119.627 26.234C119.627 24.7233 119.979 23.3667 120.683 22.164C121.402 20.9613 122.363 20.0227 123.565 19.348C124.783 18.6733 126.117 18.336 127.569 18.336C129.021 18.336 130.349 18.6733 131.551 19.348C132.769 20.0227 133.722 20.9613 134.411 22.164C135.115 23.3667 135.467 24.7233 135.467 26.234C135.467 27.7447 135.115 29.1087 134.411 30.326C133.707 31.5287 132.754 32.4673 131.551 33.142C130.349 33.8167 129.021 34.154 127.569 34.154ZM127.569 30.722C128.801 30.722 129.784 30.3113 130.517 29.49C131.265 28.6687 131.639 27.5833 131.639 26.234C131.639 24.87 131.265 23.7847 130.517 22.978C129.784 22.1567 128.801 21.746 127.569 21.746C126.323 21.746 125.325 22.1493 124.577 22.956C123.844 23.7627 123.477 24.8553 123.477 26.234C123.477 27.598 123.844 28.6907 124.577 29.512C125.325 30.3187 126.323 30.722 127.569 30.722Z" fill="#F5F5F5"/>
<path d="M138.682 26.256C138.682 24.7307 139.012 23.374 139.672 22.186C140.332 20.9833 141.249 20.052 142.422 19.392C143.61 18.7173 144.952 18.38 146.448 18.38C148.282 18.38 149.851 18.864 151.156 19.832C152.462 20.8 153.334 22.12 153.774 23.792H149.638C149.33 23.1467 148.89 22.6553 148.318 22.318C147.761 21.9807 147.123 21.812 146.404 21.812C145.246 21.812 144.307 22.2153 143.588 23.022C142.87 23.8287 142.51 24.9067 142.51 26.256C142.51 27.6053 142.87 28.6833 143.588 29.49C144.307 30.2967 145.246 30.7 146.404 30.7C147.123 30.7 147.761 30.5313 148.318 30.194C148.89 29.8567 149.33 29.3653 149.638 28.72H153.774C153.334 30.392 152.462 31.712 151.156 32.68C149.851 33.6333 148.282 34.11 146.448 34.11C144.952 34.11 143.61 33.78 142.422 33.12C141.249 32.4453 140.332 31.514 139.672 30.326C139.012 29.138 138.682 27.7813 138.682 26.256Z" fill="#F5F5F5"/>
<path d="M165.142 34.154C163.69 34.154 162.355 33.8167 161.138 33.142C159.935 32.4673 158.975 31.5287 158.256 30.326C157.552 29.1087 157.2 27.7447 157.2 26.234C157.2 24.7233 157.552 23.3667 158.256 22.164C158.975 20.9613 159.935 20.0227 161.138 19.348C162.355 18.6733 163.69 18.336 165.142 18.336C166.594 18.336 167.921 18.6733 169.124 19.348C170.341 20.0227 171.295 20.9613 171.984 22.164C172.688 23.3667 173.04 24.7233 173.04 26.234C173.04 27.7447 172.688 29.1087 171.984 30.326C171.28 31.5287 170.327 32.4673 169.124 33.142C167.921 33.8167 166.594 34.154 165.142 34.154ZM165.142 30.722C166.374 30.722 167.357 30.3113 168.09 29.49C168.838 28.6687 169.212 27.5833 169.212 26.234C169.212 24.87 168.838 23.7847 168.09 22.978C167.357 22.1567 166.374 21.746 165.142 21.746C163.895 21.746 162.898 22.1493 162.15 22.956C161.417 23.7627 161.05 24.8553 161.05 26.234C161.05 27.598 161.417 28.6907 162.15 29.512C162.898 30.3187 163.895 30.722 165.142 30.722Z" fill="#F5F5F5"/>
<path d="M184.769 34L181.557 28.17H180.655V34H176.893V18.556H183.207C184.424 18.556 185.458 18.7687 186.309 19.194C187.174 19.6193 187.82 20.206 188.245 20.954C188.67 21.6873 188.883 22.5087 188.883 23.418C188.883 24.4447 188.59 25.3613 188.003 26.168C187.431 26.9747 186.58 27.5467 185.451 27.884L189.015 34H184.769ZM180.655 25.508H182.987C183.676 25.508 184.19 25.3393 184.527 25.002C184.879 24.6647 185.055 24.188 185.055 23.572C185.055 22.9853 184.879 22.5233 184.527 22.186C184.19 21.8487 183.676 21.68 182.987 21.68H180.655V25.508Z" fill="#F5F5F5"/>
<path d="M196.767 21.57V24.694H201.805V27.598H196.767V30.986H202.465V34H193.005V18.556H202.465V21.57H196.767Z" fill="#F5F5F5"/>
<defs>
<radialGradient id="paint0_radial_5_4" cx="0" cy="0" r="1" gradientUnits="userSpaceOnUse" gradientTransform="translate(26.5205 8.20128) rotate(160.501) scale(30.9869 14.9464)">
<stop stop-color="#FFEA23"/>
<stop offset="0.412336" stop-color="#AF24FF"/>
<stop offset="1" stop-color="#FF3E26"/>
</radialGradient>
<radialGradient id="paint1_radial_5_4" cx="0" cy="0" r="1" gradientUnits="userSpaceOnUse" gradientTransform="translate(30.7692 5.59213) rotate(160.501) scale(42.4338 20.4678)">
<stop stop-color="#FFEA23"/>
<stop offset="0.412336" stop-color="#AF24FF"/>
<stop offset="1" stop-color="#FF3E26"/>
</radialGradient>
<radialGradient id="paint2_radial_5_4" cx="0" cy="0" r="1" gradientUnits="userSpaceOnUse" gradientTransform="translate(26.5208 24.6464) rotate(160.501) scale(31.0015 14.9534)">
<stop stop-color="#FFEA23"/>
<stop offset="0.412336" stop-color="#AF24FF"/>
<stop offset="1" stop-color="#FF3E26"/>
</radialGradient>
<radialGradient id="paint3_radial_5_4" cx="0" cy="0" r="1" gradientUnits="userSpaceOnUse" gradientTransform="translate(30.7692 22.0251) rotate(160.501) scale(42.4338 20.4678)">
<stop stop-color="#FFEA23"/>
<stop offset="0.412336" stop-color="#AF24FF"/>
<stop offset="1" stop-color="#FF3E26"/>
</radialGradient>
</defs>
</svg>
