<svg width="11" height="12" viewBox="0 0 11 12" fill="none" xmlns="http://www.w3.org/2000/svg">
<path d="M0.46875 12C0.209859 12 0 11.7901 0 11.5312C0 9.17918 1.91355 7.26562 4.26562 7.26562H4.96875C5.45009 7.26562 5.92273 7.34531 6.37352 7.50246C6.61798 7.58768 6.74707 7.85496 6.66183 8.09939C6.57661 8.34384 6.30933 8.47294 6.0649 8.3877C5.71355 8.26523 5.34476 8.20312 4.96875 8.20312H4.26562C2.43049 8.20312 0.9375 9.69612 0.9375 11.5312C0.9375 11.7901 0.727641 12 0.46875 12ZM7.73438 3.16406C7.73438 1.4194 6.31498 0 4.57031 0C2.82565 0 1.40625 1.4194 1.40625 3.16406C1.40625 4.90873 2.82565 6.32812 4.57031 6.32812C6.31498 6.32812 7.73438 4.90873 7.73438 3.16406ZM6.79688 3.16406C6.79688 4.39179 5.79804 5.39062 4.57031 5.39062C3.34259 5.39062 2.34375 4.39179 2.34375 3.16406C2.34375 1.93634 3.34259 0.9375 4.57031 0.9375C5.79804 0.9375 6.79688 1.93634 6.79688 3.16406ZM10.1484 9.1875H8.74219V7.78125C8.74219 7.52236 8.53233 7.3125 8.27344 7.3125C8.01455 7.3125 7.80469 7.52236 7.80469 7.78125V9.1875H6.39844C6.13955 9.1875 5.92969 9.39736 5.92969 9.65625C5.92969 9.91514 6.13955 10.125 6.39844 10.125H7.80469V11.5312C7.80469 11.7901 8.01455 12 8.27344 12C8.53233 12 8.74219 11.7901 8.74219 11.5312V10.125H10.1484C10.4073 10.125 10.6172 9.91514 10.6172 9.65625C10.6172 9.39736 10.4073 9.1875 10.1484 9.1875Z" fill="white"/>
</svg>
