<svg width="27" height="28" viewBox="0 0 27 28" fill="none" xmlns="http://www.w3.org/2000/svg">
<path d="M23.3182 0H3.68182C1.64841 0 0 1.70946 0 3.81818V24.1818C0 26.2905 1.64841 28 3.68182 28H23.3182C25.3516 28 27 26.2905 27 24.1818V3.81818C27 1.70946 25.3516 0 23.3182 0Z" fill="#EB2027"/>
<path d="M20.8544 7.23864L20.5752 7.34364L5.42148 13.0057C5.31409 13.0401 5.22075 13.1105 5.1561 13.2059C5.09145 13.3012 5.05914 13.4162 5.06423 13.5326C5.06931 13.6491 5.11152 13.7605 5.18422 13.8494C5.25692 13.9383 5.35601 13.9996 5.46597 14.0239L9.38864 15.1375L10.8522 19.592C10.8942 19.7012 10.9613 19.7981 11.0476 19.8743C11.134 19.9505 11.2369 20.0037 11.3476 20.0292C11.4583 20.0548 11.5733 20.0519 11.6826 20.0209C11.792 19.9899 11.8924 19.9317 11.9751 19.8514L14.0016 17.8659L17.9811 20.6643C18.4674 21.0079 19.1608 20.7534 19.2851 20.187L21.9206 8.11045C22.0495 7.51227 21.442 7.02068 20.8544 7.23864ZM18.9199 9.91932L12.0733 15.723L11.7511 15.9966C11.6804 16.0548 11.6342 16.1392 11.6223 16.232L11.5502 16.8493L11.3523 18.5834C11.3539 18.6045 11.3474 18.6254 11.3341 18.6415C11.3209 18.6576 11.302 18.6676 11.2817 18.6693C11.2614 18.671 11.2412 18.6642 11.2257 18.6505C11.2101 18.6368 11.2005 18.6172 11.1989 18.5961L10.642 16.8636L10.0667 15.0898C10.0424 15.01 10.0456 14.924 10.0758 14.8465C10.1061 14.7689 10.1614 14.7048 10.2324 14.665L18.6975 9.63454C18.8923 9.51682 19.0918 9.77295 18.9199 9.91932Z" fill="white"/>
</svg>
