<svg width="27" height="28" viewBox="0 0 27 28" fill="none" xmlns="http://www.w3.org/2000/svg">
<path d="M24.8684 0H2.13158C0.95434 0 0 0.989686 0 2.21053V25.7895C0 27.0103 0.95434 28 2.13158 28H24.8684C26.0457 28 27 27.0103 27 25.7895V2.21053C27 0.989686 26.0457 0 24.8684 0Z" fill="#EB2027"/>
<path d="M22.2448 8.37605C21.587 8.67397 20.8912 8.87189 20.1789 8.96369C20.9298 8.50193 21.4911 7.7704 21.7563 6.9079C21.0535 7.34049 20.2845 7.64515 19.4826 7.80868C18.9912 7.2637 18.3531 6.88467 17.6511 6.7209C16.9492 6.55713 16.216 6.6162 15.5469 6.89042C14.8778 7.16464 14.3037 7.64133 13.8994 8.25847C13.495 8.87562 13.2791 9.60467 13.2797 10.3508C13.2772 10.6356 13.3052 10.9198 13.3632 11.1982C11.9368 11.1255 10.5412 10.7416 9.26757 10.0715C7.99395 9.40144 6.87097 8.46027 5.97197 7.30947C5.50988 8.12812 5.36672 9.09888 5.57175 10.0233C5.77678 10.9478 6.31452 11.7561 7.07507 12.2832C6.5074 12.2673 5.95175 12.11 5.45507 11.8245V11.865C5.45666 12.7231 5.74307 13.5545 6.26615 14.2194C6.78923 14.8843 7.51708 15.3422 8.32737 15.5161C8.02073 15.5996 7.70473 15.6405 7.3877 15.6376C7.15942 15.642 6.93134 15.621 6.70737 15.575C6.93951 16.313 7.38644 16.9583 7.98668 17.4221C8.58691 17.8859 9.31098 18.1454 10.0593 18.165C8.79121 19.1929 7.22796 19.7512 5.61849 19.7511C5.33171 19.7536 5.0451 19.7364 4.76053 19.6995C6.40161 20.7967 8.31451 21.3765 10.2671 21.3684C16.8661 21.3684 20.4738 15.7003 20.4738 10.7874C20.4738 10.6234 20.4738 10.465 20.4614 10.3066C21.164 9.78073 21.7683 9.12654 22.2448 8.37605Z" fill="white"/>
</svg>
