<svg width="22" height="21" viewBox="0 0 22 21" fill="none" xmlns="http://www.w3.org/2000/svg">
<path d="M20.3493 1.35439C20.545 1.15959 20.5458 0.843007 20.351 0.647283C20.1562 0.45156 19.8396 0.450812 19.6439 0.645612L20.3493 1.35439ZM2.54919 18.3651L2.19035 18.7133L2.19411 18.7171L2.54919 18.3651ZM10.3528 10.5983L10.0062 10.9588C10.2022 11.1472 10.5128 11.1445 10.7055 10.9527L10.3528 10.5983ZM17.488 9.48881L17.1353 9.84319C17.3304 10.0373 17.6457 10.0373 17.8408 9.84319L17.488 9.48881ZM21 5.99341L21.3527 6.3478C21.447 6.25397 21.5 6.12643 21.5 5.99341C21.5 5.8604 21.447 5.73286 21.3527 5.63903L21 5.99341ZM19.6439 0.645612L17.637 2.64298L18.3425 3.35175L20.3493 1.35439L19.6439 0.645612ZM10.0034 10.9541C10.4745 11.4167 10.8488 11.9673 11.105 12.5742L12.0263 12.1853C11.7186 11.4565 11.2692 10.7956 10.7041 10.2406L10.0034 10.9541ZM11.105 12.5742C11.3612 13.1811 11.4942 13.8324 11.4964 14.4905L12.4964 14.4872C12.4937 13.6965 12.3339 12.9142 12.0263 12.1853L11.105 12.5742ZM11.4964 14.4905C11.4986 15.1487 11.37 15.8008 11.1179 16.4094L12.0418 16.7921C12.3445 16.0612 12.499 15.2778 12.4964 14.4872L11.4964 14.4905ZM11.1179 16.4094C10.8658 17.018 10.4952 17.5711 10.0273 18.0368L10.7327 18.7456C11.2941 18.1868 11.7391 17.5229 12.0418 16.7921L11.1179 16.4094ZM10.0273 18.0368C9.55934 18.5025 9.00334 18.8717 8.39123 19.1228L8.77082 20.048C9.50453 19.7469 10.1713 19.3044 10.7327 18.7456L10.0273 18.0368ZM8.39123 19.1228C7.7791 19.374 7.12303 19.5022 6.4608 19.5L6.45746 20.5C7.25092 20.5026 8.03712 20.349 8.77082 20.048L8.39123 19.1228ZM6.4608 19.5C5.79857 19.4978 5.14337 19.3652 4.53296 19.11L4.14719 20.0326C4.87885 20.3385 5.66401 20.4973 6.45746 20.5L6.4608 19.5ZM4.53296 19.11C3.92255 18.8547 3.36905 18.4819 2.90427 18.0131L2.19411 18.7171C2.75174 19.2796 3.41553 19.7266 4.14719 20.0326L4.53296 19.11ZM2.90801 18.0169C1.99408 17.0751 1.48877 15.8142 1.50019 14.5059L0.500228 14.4971C0.486502 16.0692 1.09372 17.5832 2.19037 18.7133L2.90801 18.0169ZM1.50019 14.5059C1.51161 13.1975 2.03886 11.9455 2.96913 11.0196L2.2637 10.3109C1.14751 11.4218 0.513953 12.9251 0.500228 14.4971L1.50019 14.5059ZM2.96913 11.0196C3.89948 10.0937 5.1585 9.56804 6.47516 9.55665L6.46651 8.55669C4.88915 8.57033 3.37981 9.20002 2.2637 10.3109L2.96913 11.0196ZM6.47516 9.55665C7.79182 9.54526 9.05985 10.0491 10.0062 10.9588L10.6993 10.2379C9.56395 9.14653 8.04386 8.54305 6.46651 8.55669L6.47516 9.55665ZM10.7055 10.9527L10.7065 10.9517L10.001 10.243L10 10.244L10.7055 10.9527ZM10.7065 10.9517L14.8305 6.84714L14.1251 6.13837L10.001 10.243L10.7065 10.9517ZM14.1251 6.84714L17.1353 9.84319L17.8408 9.13442L14.8305 6.13837L14.1251 6.84714ZM17.8408 9.84319L21.3527 6.3478L20.6473 5.63903L17.1353 9.13442L17.8408 9.84319ZM21.3527 5.63903L18.3425 2.64298L17.637 3.35175L20.6473 6.3478L21.3527 5.63903ZM17.637 2.64298L14.1251 6.13837L14.8305 6.84714L18.3425 3.35175L17.637 2.64298Z" fill="#EB2027"/>
</svg>
