<svg width="14" height="16" viewBox="0 0 14 16" fill="none" xmlns="http://www.w3.org/2000/svg">
<path d="M12.5 15C12.5 15.2761 12.7239 15.5 13 15.5C13.2761 15.5 13.5 15.2761 13.5 15H12.5ZM10 10.3333V9.83333V10.3333ZM4 10.3333V9.83333V10.3333ZM1 13.4444H0.5H1ZM0.5 15C0.5 15.2761 0.723858 15.5 1 15.5C1.27614 15.5 1.5 15.2761 1.5 15H0.5ZM13.5 15V13.4444H12.5V15H13.5ZM13.5 13.4444C13.5 12.4925 13.1355 11.576 12.4812 10.8975L11.7614 11.5916C12.2324 12.08 12.5 12.7462 12.5 13.4444H13.5ZM12.4812 10.8975C11.8264 10.2184 10.9342 9.83333 10 9.83333V10.8333C10.6571 10.8333 11.291 11.1038 11.7614 11.5916L12.4812 10.8975ZM10 9.83333H4V10.8333H10V9.83333ZM4 9.83333C3.06575 9.83333 2.17362 10.2184 1.51876 10.8975L2.2386 11.5916C2.70896 11.1038 3.34295 10.8333 4 10.8333V9.83333ZM1.51876 10.8975C0.864495 11.576 0.5 12.4925 0.5 13.4444H1.5C1.5 12.7462 1.76765 12.08 2.2386 11.5916L1.51876 10.8975ZM0.5 13.4444V15H1.5V13.4444H0.5ZM9.5 4.11111C9.5 5.57048 8.36373 6.72222 7 6.72222V7.72222C8.94998 7.72222 10.5 6.08818 10.5 4.11111H9.5ZM7 6.72222C5.63627 6.72222 4.5 5.57048 4.5 4.11111H3.5C3.5 6.08818 5.05002 7.72222 7 7.72222V6.72222ZM4.5 4.11111C4.5 2.65174 5.63627 1.5 7 1.5V0.5C5.05002 0.5 3.5 2.13404 3.5 4.11111H4.5ZM7 1.5C8.36373 1.5 9.5 2.65174 9.5 4.11111H10.5C10.5 2.13404 8.94998 0.5 7 0.5V1.5Z" fill="#EB2027"/>
</svg>
