<svg width="27" height="28" viewBox="0 0 27 28" fill="none" xmlns="http://www.w3.org/2000/svg">
<path d="M24.8684 0H2.13158C0.95434 0 0 0.989686 0 2.21053V25.7895C0 27.0103 0.95434 28 2.13158 28H24.8684C26.0457 28 27 27.0103 27 25.7895V2.21053C27 0.989686 26.0457 0 24.8684 0Z" fill="#EB2027"/>
<path d="M17.9177 8.73342H9.0823C8.72922 8.73342 8.37959 8.80557 8.0534 8.94575C7.72722 9.08593 7.43086 9.29139 7.18128 9.5504C6.93169 9.8094 6.73376 10.1169 6.5988 10.4552C6.46385 10.7936 6.3945 11.1562 6.39474 11.5224V16.4776C6.3945 16.8438 6.46385 17.2064 6.5988 17.5448C6.73376 17.8831 6.93169 18.1906 7.18128 18.4496C7.43086 18.7086 7.72722 18.9141 8.0534 19.0542C8.37959 19.1944 8.72922 19.2666 9.0823 19.2666H17.9177C18.2708 19.2666 18.6204 19.1944 18.9466 19.0542C19.2728 18.9141 19.5691 18.7086 19.8187 18.4496C20.0683 18.1906 20.2662 17.8831 20.4012 17.5448C20.5361 17.2064 20.6055 16.8438 20.6053 16.4776V11.5224C20.6055 11.1562 20.5361 10.7936 20.4012 10.4552C20.2662 10.1169 20.0683 9.8094 19.8187 9.5504C19.5691 9.29139 19.2728 9.08593 18.9466 8.94575C18.6204 8.80557 18.2708 8.73342 17.9177 8.73342ZM11.6278 16.2584V11.7416L15.3722 14L11.6278 16.2584Z" fill="white"/>
</svg>
